<svg width="22" height="22" viewBox="0 0 22 22" fill="none" xmlns="http://www.w3.org/2000/svg">
    <path fill-rule="evenodd" clip-rule="evenodd" d="M21 4C21 5.10457 20.1046 6 19 6C17.8954 6 17 5.10457 17 4C17 2.89543 17.8954 2 19 2C20.1046 2 21 2.89543 21 4ZM21 11C21 12.1046 20.1046 13 19 13C17.8954 13 17 12.1046 17 11C17 9.89543 17.8954 9 19 9C20.1046 9 21 9.89543 21 11ZM19 20C20.1046 20 21 19.1046 21 18C21 16.8954 20.1046 16 19 16C17.8954 16 17 16.8954 17 18C17 19.1046 17.8954 20 19 20Z" fill="#4A90E2"/>
</svg>